<svg xmlns="http://www.w3.org/2000/svg" viewBox="0 0 1200 900" role="img" aria-label="Applied Intelligence hat icon set">
  <defs>
    <linearGradient id="panel" x1="0" x2="0" y1="0" y2="1"><stop offset="0%" stop-color="#071326"/><stop offset="100%" stop-color="#020711"/></linearGradient>
    <linearGradient id="blue" x1="0" x2="1" y1="0" y2="1"><stop offset="0%" stop-color="#8ad7ff"/><stop offset="50%" stop-color="#0072ff"/><stop offset="100%" stop-color="#66dcff"/></linearGradient>
    <linearGradient id="silver" x1="0" x2="1" y1="0" y2="1"><stop offset="0%" stop-color="#ffffff"/><stop offset="55%" stop-color="#e4edff"/><stop offset="100%" stop-color="#8fb5ff"/></linearGradient>
    <filter id="glow" x="-35%" y="-35%" width="170%" height="170%"><feGaussianBlur stdDeviation="7" result="blur"/><feColorMatrix in="blur" type="matrix" values="0 0 0 0 .05 0 0 0 0 .45 0 0 0 0 1 0 0 0 .85 0" result="g"/><feMerge><feMergeNode in="g"/><feMergeNode in="SourceGraphic"/></feMerge></filter>
    <filter id="shadow" x="-30%" y="-30%" width="160%" height="160%"><feDropShadow dx="0" dy="8" stdDeviation="7" flood-color="#000814" flood-opacity=".6"/></filter>
  </defs>
  <rect width="1200" height="900" fill="#050b17"/>
  <text x="600" y="70" text-anchor="middle" font-family="Inter, Arial, sans-serif" font-size="28" letter-spacing="9" fill="#b8c8e8">APPLIED INTELLIGENCE · TRUE HAT ICON SET</text>
  <g transform="translate(90 120)"><rect width="420" height="270" rx="44" fill="url(#panel)" stroke="url(#blue)" stroke-width="12" filter="url(#glow)"/><g transform="translate(78 43) scale(.68)"><path d="M62 272 C102 200 154 96 203 52 C236 58 261 89 282 125" fill="none" stroke="url(#blue)" stroke-width="38" stroke-linecap="round"/><path d="M70 300 C150 260 257 260 386 316" fill="none" stroke="url(#blue)" stroke-width="38" stroke-linecap="round"/><path d="M312 148 L398 312" fill="none" stroke="url(#blue)" stroke-width="38" stroke-linecap="round"/><text x="171" y="274" font-family="Arial Black, Arial" font-size="154" font-weight="900" fill="url(#silver)" letter-spacing="-13" filter="url(#shadow)">AI</text><circle cx="102" cy="248" r="27" fill="url(#silver)"/><circle cx="322" cy="148" r="29" fill="url(#silver)"/><circle cx="302" cy="296" r="27" fill="url(#silver)"/></g><text x="210" y="330" text-anchor="middle" font-family="Inter, Arial" font-size="26" fill="#dcecff">Embroidery Color</text></g>
  <g transform="translate(690 120)"><rect width="420" height="270" rx="44" fill="#050b17" stroke="#eef4ff" stroke-width="12"/><g transform="translate(78 43) scale(.68)"><path d="M62 272 C102 200 154 96 203 52 C236 58 261 89 282 125" fill="none" stroke="#eef4ff" stroke-width="38" stroke-linecap="round"/><path d="M70 300 C150 260 257 260 386 316" fill="none" stroke="#eef4ff" stroke-width="38" stroke-linecap="round"/><path d="M312 148 L398 312" fill="none" stroke="#eef4ff" stroke-width="38" stroke-linecap="round"/><text x="171" y="274" font-family="Arial Black, Arial" font-size="154" font-weight="900" fill="#eef4ff" letter-spacing="-13">AI</text><circle cx="102" cy="248" r="27" fill="#eef4ff"/><circle cx="322" cy="148" r="29" fill="#eef4ff"/><circle cx="302" cy="296" r="27" fill="#eef4ff"/></g><text x="210" y="330" text-anchor="middle" font-family="Inter, Arial" font-size="26" fill="#dcecff">Embroidery 1-Color</text></g>
  <g transform="translate(90 500)"><rect width="420" height="270" rx="54" fill="url(#panel)" stroke="url(#blue)" stroke-width="10" filter="url(#glow)"/><g transform="translate(78 43) scale(.68)"><path d="M62 272 C102 200 154 96 203 52 C236 58 261 89 282 125" fill="none" stroke="url(#silver)" stroke-width="34" stroke-linecap="round" filter="url(#shadow)"/><path d="M70 300 C150 260 257 260 386 316" fill="none" stroke="url(#silver)" stroke-width="34" stroke-linecap="round" filter="url(#shadow)"/><path d="M312 148 L398 312" fill="none" stroke="url(#silver)" stroke-width="34" stroke-linecap="round" filter="url(#shadow)"/><text x="171" y="274" font-family="Arial Black, Arial" font-size="154" font-weight="900" fill="url(#silver)" letter-spacing="-13" filter="url(#shadow)">AI</text><circle cx="102" cy="248" r="27" fill="url(#silver)"/><circle cx="322" cy="148" r="29" fill="url(#silver)"/><circle cx="302" cy="296" r="27" fill="url(#silver)"/></g><text x="210" y="330" text-anchor="middle" font-family="Inter, Arial" font-size="26" fill="#dcecff">Rubber Patch</text></g>
  <g transform="translate(690 500)"><rect width="420" height="270" rx="44" fill="#0a1730" stroke="#17294e" stroke-width="12"/><g transform="translate(78 43) scale(.68)" opacity=".76"><path d="M62 272 C102 200 154 96 203 52 C236 58 261 89 282 125" fill="none" stroke="#273e70" stroke-width="38" stroke-linecap="round"/><path d="M70 300 C150 260 257 260 386 316" fill="none" stroke="#273e70" stroke-width="38" stroke-linecap="round"/><path d="M312 148 L398 312" fill="none" stroke="#273e70" stroke-width="38" stroke-linecap="round"/><text x="171" y="274" font-family="Arial Black, Arial" font-size="154" font-weight="900" fill="#273e70" letter-spacing="-13">AI</text><circle cx="102" cy="248" r="27" fill="#273e70"/><circle cx="322" cy="148" r="29" fill="#273e70"/><circle cx="302" cy="296" r="27" fill="#273e70"/></g><text x="210" y="330" text-anchor="middle" font-family="Inter, Arial" font-size="26" fill="#9eb3d5">Tonal Patch</text></g>
</svg>
